# xmcd CD database file
#
# Track frame offsets:
#	150
#	15417
#	25998
#	41849
#	59513
#	77422
#	93865
#	104503
#	124033
#	138037
#	154105
#	165647
#	178980
#	194591
#	207236
#	226275
#	238423
#	251696
#	264922
#	277326
#
# Disc length: 3892 seconds
#
# Revision: 0
# Processed by: cddbd v1.5.2PL0 Copyright (c) Steve Scherf et al.
# Submitted via: CDex 1.51
#
DISCID=1a0f3214
DTITLE=THE NASHVILLE RIDERS and LOBO JOE - COUNTRY
DYEAR=1900
DGENRE=Country
TTITLE0=NO ROMPAS MI CORAZON
TTITLE1=JAMBALAYA
TTITLE2=HONKY TONK MAN
TTITLE3=CHATTAHOOCHEE
TTITLE4=PIZZIRICCO
TTITLE5=CONVENCE A TU MAMA'
TTITLE6=HONKY TONK BLUES
TTITLE7=DANCE THE NIGHT AWAY
TTITLE8=I LIKE IT I LOVE IT
TTITLE9=OLD POP IN AN OAK
TTITLE10=HILLBILLY ROCK HILLBILLY ROLL
TTITLE11=LITTLE MISS HONKY TONK
TTITLE12=GPD BLESSED TEXAS
TTITLE13=THIRD ROCK FROM THE SUN
TTITLE14=WHOSE BED HAVE YOUR BOOTS BEEN UNDER
TTITLE15=I TRY TO THINK ABOUT ELVIS
TTITLE16=XXX'S and 000'S (AN AMERICAN GIRL)
TTITLE17=MI VIDA LOCA (MY CRAZY LIFE)
TTITLE18=GONNA GET A LIFE
TTITLE19=I WANT MY GOODBYE BACK
EXTD=
EXTT0=
EXTT1=
EXTT2=
EXTT3=
EXTT4=
EXTT5=
EXTT6=
EXTT7=
EXTT8=
EXTT9=
EXTT10=
EXTT11=
EXTT12=
EXTT13=
EXTT14=
EXTT15=
EXTT16=
EXTT17=
EXTT18=
EXTT19=
PLAYORDER=
